<svg width="24" height="24" viewBox="0 0 24 24" fill="none" xmlns="http://www.w3.org/2000/svg">
<g id="eva:diagonal-arrow-right-up-fill">
<g id="evaDiagonalArrowRightUpFill0">
<g id="evaDiagonalArrowRightUpFill1">
<path id="evaDiagonalArrowRightUpFill2" d="M18 7.05C18 6.78478 17.8946 6.53043 17.7071 6.34289C17.5196 6.15536 17.2652 6.05 17 6.05L9 6C8.73478 6 8.48043 6.10536 8.29289 6.29289C8.10536 6.48043 8 6.73478 8 7C8 7.26522 8.10536 7.51957 8.29289 7.70711C8.48043 7.89464 8.73478 8 9 8H14.56L6.29 16.29C6.19627 16.383 6.12188 16.4936 6.07111 16.6154C6.02034 16.7373 5.9942 16.868 5.9942 17C5.9942 17.132 6.02034 17.2627 6.07111 17.3846C6.12188 17.5064 6.19627 17.617 6.29 17.71C6.38296 17.8037 6.49356 17.8781 6.61542 17.9289C6.73728 17.9797 6.86799 18.0058 7 18.0058C7.13201 18.0058 7.26272 17.9797 7.38458 17.9289C7.50644 17.8781 7.61704 17.8037 7.71 17.71L16 9.42V15C16 15.2652 16.1054 15.5196 16.2929 15.7071C16.4804 15.8946 16.7348 16 17 16C17.2652 16 17.5196 15.8946 17.7071 15.7071C17.8946 15.5196 18 15.2652 18 15V7.05Z" fill="white"/>
</g>
</g>
</g>
</svg>
