<svg width="25" height="26" viewBox="0 0 25 26" fill="none" xmlns="http://www.w3.org/2000/svg">
<path id="Vector" d="M0 13C0 9.68479 1.31696 6.50537 3.66117 4.16117C6.00537 1.81696 9.18479 0.5 12.5 0.5C15.8152 0.5 18.9946 1.81696 21.3388 4.16117C23.683 6.50537 25 9.68479 25 13C25 16.3152 23.683 19.4946 21.3388 21.8388C18.9946 24.183 15.8152 25.5 12.5 25.5C9.18479 25.5 6.00537 24.183 3.66117 21.8388C1.31696 19.4946 0 16.3152 0 13V13ZM11.7188 2.18281C10.6719 2.50156 9.63281 3.46406 8.77031 5.08125C8.48614 5.6189 8.24174 6.17664 8.03906 6.75H11.7188V2.18281ZM6.39063 6.75C6.65105 5.92003 6.98574 5.11521 7.39063 4.34531C7.66079 3.83446 7.9728 3.34686 8.32344 2.8875C6.38751 3.69035 4.72188 5.03066 3.52344 6.75H6.39063ZM5.48125 12.2188C5.52812 10.8484 5.69687 9.53438 5.96875 8.3125H2.61563C2.033 9.53914 1.68533 10.8641 1.59063 12.2188H5.48125ZM7.57344 8.3125C7.26612 9.59344 7.08917 10.9022 7.04531 12.2188H11.7188V8.3125H7.57344ZM13.2812 8.3125V12.2188H17.9531C17.9098 10.9022 17.7334 9.59349 17.4266 8.3125H13.2812ZM7.04688 13.7812C7.09022 15.0978 7.26664 16.4065 7.57344 17.6875H11.7188V13.7812H7.04688ZM13.2812 13.7812V17.6875H17.4266C17.7187 16.4922 17.9047 15.175 17.9547 13.7812H13.2812ZM8.03906 19.25C8.25469 19.8531 8.5 20.4125 8.77031 20.9187C9.63281 22.5359 10.6734 23.4969 11.7188 23.8172V19.25H8.03906ZM8.32344 23.1125C7.97277 22.6532 7.66077 22.1656 7.39063 21.6547C6.98574 20.8848 6.65106 20.08 6.39063 19.25H3.52344C4.72182 20.9694 6.38746 22.3097 8.32344 23.1125V23.1125ZM5.96875 17.6875C5.68619 16.4032 5.523 15.0956 5.48125 13.7812H1.59063C1.6875 15.1719 2.04531 16.4891 2.61563 17.6875H5.96875ZM16.6766 23.1125C18.6125 22.3097 20.2782 20.9694 21.4766 19.25H18.6094C18.3489 20.08 18.0142 20.8848 17.6094 21.6547C17.3393 22.1656 17.0273 22.6532 16.6766 23.1125V23.1125ZM13.2812 19.25V23.8172C14.3281 23.4984 15.3672 22.5359 16.2297 20.9187C16.5 20.4125 16.7453 19.8531 16.9609 19.25H13.2812ZM19.0313 17.6875H22.3844C22.9547 16.4891 23.3125 15.1719 23.4094 13.7812H19.5187C19.477 15.0956 19.3138 16.4032 19.0313 17.6875ZM23.4094 12.2188C23.3146 10.8641 22.967 9.53915 22.3844 8.3125H19.0313C19.3031 9.53438 19.4719 10.8484 19.5187 12.2188H23.4094ZM17.6094 4.34531C17.9953 5.07031 18.3312 5.87656 18.6094 6.75H21.4766C20.2782 5.0306 18.6125 3.69028 16.6766 2.8875C17.0172 3.33125 17.3297 3.82187 17.6094 4.34531V4.34531ZM16.9609 6.75C16.7583 6.17663 16.5139 5.61889 16.2297 5.08125C15.3672 3.46406 14.3281 2.50313 13.2812 2.18281V6.75H16.9609Z" fill="white"/>
</svg>
